<svg width="220" height="220" viewBox="0 0 220 220" xmlns="http://www.w3.org/2000/svg" role="img" aria-label="Neo mascot">
  <defs>
    <radialGradient id="m-halo" cx="50%" cy="42%" r="55%"><stop offset="0" stop-color="#b9aef8" stop-opacity=".55"/><stop offset="1" stop-color="#b9aef8" stop-opacity="0"/></radialGradient>
    <linearGradient id="m-body" x1="0" y1="0" x2="0" y2="1"><stop offset="0" stop-color="#9d8cf3"/><stop offset="1" stop-color="#7b61ff"/></linearGradient>
    <linearGradient id="m-hi" x1="0" y1="0" x2="1" y2="1"><stop offset="0" stop-color="#fff" stop-opacity=".5"/><stop offset=".5" stop-color="#fff" stop-opacity="0"/></linearGradient>
    <linearGradient id="m-visor" x1="0" y1="0" x2="0" y2="1"><stop offset="0" stop-color="#2a2440"/><stop offset="1" stop-color="#1c1830"/></linearGradient>
    <radialGradient id="m-eye" cx="40%" cy="35%" r="70%"><stop offset="0" stop-color="#fff"/><stop offset=".25" stop-color="#cfe8ff"/><stop offset="1" stop-color="#7fb6ff"/></radialGradient>
    <filter id="m-soft" x="-30%" y="-30%" width="160%" height="160%"><feDropShadow dx="0" dy="10" stdDeviation="12" flood-color="#1e1e2e" flood-opacity=".18"/></filter>
  </defs>
  <ellipse cx="110" cy="118" rx="92" ry="92" fill="url(#m-halo)"/>
  <ellipse cx="110" cy="196" rx="54" ry="12" fill="#1e1e2e" opacity=".12"/>
  <line x1="110" y1="44" x2="110" y2="64" stroke="#7b61ff" stroke-width="6" stroke-linecap="round"/>
  <circle cx="110" cy="40" r="9" fill="#16c784"/><circle cx="110" cy="40" r="9" fill="#fff" opacity=".25"/>
  <g filter="url(#m-soft)">
    <rect x="44" y="64" width="132" height="112" rx="40" fill="url(#m-body)"/>
    <rect x="44" y="64" width="132" height="112" rx="40" fill="url(#m-hi)"/>
    <rect x="30" y="98" width="20" height="44" rx="10" fill="#6a4df4"/>
    <rect x="170" y="98" width="20" height="44" rx="10" fill="#6a4df4"/>
    <rect x="62" y="86" width="96" height="68" rx="30" fill="url(#m-visor)"/>
    <circle cx="92" cy="120" r="14" fill="url(#m-eye)"/><circle cx="128" cy="120" r="14" fill="url(#m-eye)"/>
    <circle cx="96" cy="124" r="4.5" fill="#1c1830" opacity=".6"/><circle cx="132" cy="124" r="4.5" fill="#1c1830" opacity=".6"/>
    <path d="M96 142q14 12 28 0" fill="none" stroke="#16c784" stroke-width="4" stroke-linecap="round"/>
  </g>
  <g transform="translate(168 150)"><circle r="22" fill="#d5eec9"/><circle r="22" fill="#fff" opacity=".2"/>
    <text x="0" y="7" text-anchor="middle" font-size="22" font-weight="800" font-family="Inter, Arial, sans-serif" fill="#16c784">N</text></g>
</svg>
